<?xml version="1.0" encoding="utf-8"?>
<!-- Generator: Adobe Illustrator 22.1.0, SVG Export Plug-In . SVG Version: 6.00 Build 0)  -->
<svg version="1.1" id="Layer_1" xmlns="http://www.w3.org/2000/svg" xmlns:xlink="http://www.w3.org/1999/xlink" x="0px" y="0px"
	 viewBox="0 0 194 193" style="enable-background:new 0 0 194 193;" xml:space="preserve">
<style type="text/css">
	.st0{fill:#37B588;}
	.st1{fill:url(#SVGID_1_);}
	.st2{fill:url(#SVGID_2_);}
	.st3{fill:url(#SVGID_3_);}
	.st4{fill:url(#SVGID_4_);}
	.st5{fill:url(#SVGID_5_);}
</style>
<g>
	<path class="st0" d="M84.4,93.5l-0.2,0.7L83.9,95l-0.4,1.3l-0.7,1.1l-0.3,0.9l-0.4,1.4l-0.5,1.6l-0.1,1.6l-0.3,1.3v1.4l-0.1,0.8
		l-0.2,1.2l-0.2,1.4l-0.2,1.8l-0.1,1.5l-0.2,1.3l-0.5,1.4l-0.6,1.3l-0.1,1.3v1.1l-0.3,1.3v1.3l-0.2,0.8l-0.2,0.8l-0.9,0.5h-0.6
		l-0.5-0.8l-0.3-1.5l-0.1-1.2l-0.5-0.7l-0.1-0.8l-0.2-1l-0.4-1.9l-0.2-1.3l-0.2-0.9l-0.2-1.1l-0.2-1.1l-0.2-0.8v-0.9l-0.4-0.8
		l-0.2-0.7l-0.3-1.3l-0.1-0.9l-0.3-0.9l-0.5-0.8l-0.5-0.5l-0.5,0.6l-0.2,1l-0.3,1l-0.1,0.9l-0.2,0.7l-0.5,0.7l-0.4,1.3l-0.4,1.1
		l-0.4,1.3l-0.1,1.3l-0.4,1.2l-0.3,1.3l-0.3,1.4l-0.2,1.5l-0.4,1.1l-0.3,1.3l-0.5,0.8l-0.8,0.7l-0.5,0.1h-0.6l-0.5-0.4l-0.1-0.7
		l-0.3-1l-0.2-1.2l-0.3-1.1l-0.2-1.7l-0.4-1v-1l-0.1-1.4v-1.3l-0.2-1.2l-0.4-2.8l-0.3-1.2l-0.1-1.3l0.1-1.2l-0.2-1.4l-0.2-1.3
		l-0.4-0.9l-0.2-1.1l-0.3-0.8L60.1,99l-0.5-0.7l-0.3-0.9v-1.6l0.5-1l0.5-0.7l1-0.5l1.2,0.2l1,0.7l0.7,0.6l0.6,0.9l0.2,0.7l0.5,0.9
		l0.3,1.2v1.3l0.2,1.3l-0.2,1.6l0.2,1.5v1.8l0.2,1.1l0.2,0.9l0.2,1.1v0.8l0.2,0.4l0.5-0.3l0.5-0.4l0.4-1l0.2-1l0.3-1.3l0.8-2.7
		l0.6-1.4l0.6-1l0.6-1.4l0.5-1.3l0.3-0.8l0.4-0.8l0.3-0.5l0.9,0.1l0.4,0.7v0.9l-0.1,1.1v0.9l0.1,1.2l0.3,1l0.5,1.4l0.2,1.4l0.4,1.5
		l0.3,1.8l0.3,1.5l0.3,1.4l0.3,0.9v1.2l0.3,1.2l0.2,1.1l0.2,0.8l0.2,1l0.3,0.3l0.5-0.8v-0.9l-0.2-1l-0.5-1.1l-0.1-1l0.1-1.1l0.3-1.5
		l0.1-1.2v-1.3l0.1-1.4l0.3-1.4l0.6-1.3l0.2-1.4l0.2-1.1l0.5-1.1l0.5-0.9l0.5-1.3l0.5-1.3l0.6-0.8l0.6-1.1l0.3-0.9l0.6-0.8l0.4-0.9
		l0.6-0.1l0.1,0.4L84.4,93.5z M80.2,96l-0.2,0.5l-0.4-0.4v-0.4l0.4-0.2L80.2,96z"/>
	<path class="st0" d="M115,59.7l-0.2,1.1l-0.7,0.9l-0.7,0.6l-0.9,0.1l-2.6-0.4l-1.9-0.7h-1.6l-1.1,0.4l-1.2,0.7l-1.1,0.6l-0.3,0.6
		l-0.8,0.4l-1.9,1.8L99,67l-0.6,1.3l-0.5,1.5l-0.7,1.6L97,73.1l0.2,2.1l-0.4,1.9l-0.3,2.2l-0.2,2.2v2.1l-0.2,1.6l0.4,1l0.8,0.6
		l1.5,0.4l2.5-0.4h1.5l1.3,0.4l1.7,0.3l0.8,0.5l1.1-0.3l1,0.5l0.2,1.1l-1.2,0.9h-2.9l-2.1-0.1h-2.9l-1.4,0.4l-1.5-0.2L96.2,91
		l-0.1,1.3l-0.9,1.2l-0.9,0.8l-0.2,1.3l0.2,1.5l0.2,3.5l0.3,2.9l0.1,2.8v3.3l0.1,3.5l0.4,3.3l0.2,2.9l0.7,1.8l0.5,1.4v1.7l-0.5,1.3
		l-0.2,0.8l-0.5,0.6l-0.5,0.2l-0.6-0.4l-1.2-1.4l-0.8-1.2l-0.6-1.7l-0.2-1.7l0.4-1.1l0.6-1.1l-0.2-3.2l-0.4-4.7l-0.1-3.5l-0.2-3.3
		l-0.2-2.2l-0.6-2.6v-2.6l-0.4-1.9l-0.2-3.2L89.8,85l0.2-2.6l-0.4-6.8V73l0.2-2.2l0.5-2.6l-0.2-1.5l0.6-2.2l0.5-2.8l0.8-1.5l1.3-0.7
		h1.6l0.7-0.5l0.8-0.1l0.5-0.7l1.1-0.9l1.1-0.8l1.6-1.5l0.7-1.2l1.1-0.9l1.1-0.6h1.2l1.6,0.6l1,1l3.4,0.9l0.5,0.7l1.1,0.2l0.3,0.7
		l0.8,0.9l0.9,0.3l0.5,0.9L115,59.7z"/>
</g>
<linearGradient id="SVGID_1_" gradientUnits="userSpaceOnUse" x1="44" y1="152" x2="44" y2="152">
	<stop  offset="0" style="stop-color:#FFFFFF"/>
	<stop  offset="0" style="stop-color:#FBFEFD"/>
	<stop  offset="0" style="stop-color:#37B588"/>
	<stop  offset="1" style="stop-color:#53C9A2"/>
</linearGradient>
<path class="st1" d="M44,152"/>
<linearGradient id="SVGID_2_" gradientUnits="userSpaceOnUse" x1="15" y1="75" x2="66" y2="75">
	<stop  offset="0" style="stop-color:#FFFFFF"/>
	<stop  offset="0" style="stop-color:#FBFEFD"/>
	<stop  offset="0" style="stop-color:#45F4B1"/>
	<stop  offset="1" style="stop-color:#37B588"/>
</linearGradient>
<polygon class="st2" points="15,0 66,134 47,150 "/>
<linearGradient id="SVGID_3_" gradientUnits="userSpaceOnUse" x1="47" y1="163.5" x2="191" y2="163.5">
	<stop  offset="0" style="stop-color:#FFFFFF"/>
	<stop  offset="0" style="stop-color:#FBFEFD"/>
	<stop  offset="0" style="stop-color:#37B588"/>
	<stop  offset="1" style="stop-color:#45F4B1"/>
</linearGradient>
<polygon class="st3" points="47,150 66,134 191,193 "/>
<linearGradient id="SVGID_4_" gradientUnits="userSpaceOnUse" x1="35.3097" y1="106.2694" x2="62.5483" y2="106.2694" gradientTransform="matrix(-0.9965 -8.336557e-02 8.336557e-02 -0.9965 187.1147 212.7938)">
	<stop  offset="0" style="stop-color:#FFFFFF"/>
	<stop  offset="0" style="stop-color:#FBFEFD"/>
	<stop  offset="0" style="stop-color:#45F4B1"/>
	<stop  offset="1" style="stop-color:#37B588"/>
</linearGradient>
<polygon class="st4" points="157.1,147.7 136.5,67.3 147.4,58.8 "/>
<linearGradient id="SVGID_5_" gradientUnits="userSpaceOnUse" x1="52.4006" y1="158.0767" x2="129.3097" y2="158.0767" gradientTransform="matrix(-0.9965 -8.336557e-02 8.336557e-02 -0.9965 187.1147 212.7938)">
	<stop  offset="0" style="stop-color:#FFFFFF"/>
	<stop  offset="0" style="stop-color:#FBFEFD"/>
	<stop  offset="0" style="stop-color:#37B588"/>
	<stop  offset="1" style="stop-color:#45F4B1"/>
</linearGradient>
<polygon class="st5" points="147.4,58.8 136.5,67.3 72.9,27.3 "/>
</svg>
